<svg xmlns="http://www.w3.org/2000/svg" width="1080" height="1920" viewBox="0 0 1080 1920">
  <rect width="1080" height="1920" fill="#0A0A0A"/>
  <!-- Status bar -->
  <rect width="1080" height="80" fill="#0A0A0A"/>
  <text x="960" y="52" font-family="sans-serif" font-size="28" fill="#888">9:41</text>
  <!-- Profile header -->
  <circle cx="540" cy="240" r="80" fill="#E50914"/>
  <text x="520" y="256" font-family="sans-serif" font-size="60" fill="white">N</text>
  <text x="540" y="370" font-family="sans-serif" font-size="36" font-weight="bold" fill="white" text-anchor="middle">Nathan</text>
  <text x="540" y="410" font-family="sans-serif" font-size="20" fill="#666" text-anchor="middle">nathan@vista.app</text>
  <!-- Stats -->
  <rect x="120" y="460" width="280" height="100" rx="12" fill="#111"/>
  <text x="260" y="510" font-family="sans-serif" font-size="32" font-weight="bold" fill="#E50914" text-anchor="middle">47</text>
  <text x="260" y="540" font-family="sans-serif" font-size="18" fill="#666" text-anchor="middle">Watchlist</text>
  <rect x="420" y="460" width="240" height="100" rx="12" fill="#111"/>
  <text x="540" y="510" font-family="sans-serif" font-size="32" font-weight="bold" fill="#E50914" text-anchor="middle">12</text>
  <text x="540" y="540" font-family="sans-serif" font-size="18" fill="#666" text-anchor="middle">Watched</text>
  <rect x="680" y="460" width="280" height="100" rx="12" fill="#111"/>
  <text x="820" y="510" font-family="sans-serif" font-size="32" font-weight="bold" fill="#E50914" text-anchor="middle">8</text>
  <text x="820" y="540" font-family="sans-serif" font-size="18" fill="#666" text-anchor="middle">Reviews</text>
  <!-- Settings menu -->
  <text x="60" y="640" font-family="sans-serif" font-size="28" font-weight="bold" fill="white">Settings</text>
  <rect x="60" y="680" width="960" height="72" rx="12" fill="#111"/>
  <text x="120" y="726" font-family="sans-serif" font-size="22" fill="white">Theme</text>
  <text x="880" y="726" font-family="sans-serif" font-size="22" fill="#888">Dark ›</text>
  <rect x="60" y="764" width="960" height="72" rx="12" fill="#111"/>
  <text x="120" y="810" font-family="sans-serif" font-size="22" fill="white">Notifications</text>
  <text x="880" y="810" font-family="sans-serif" font-size="22" fill="#888">On ›</text>
  <rect x="60" y="848" width="960" height="72" rx="12" fill="#111"/>
  <text x="120" y="894" font-family="sans-serif" font-size="22" fill="white">Streaming Quality</text>
  <text x="880" y="894" font-family="sans-serif" font-size="22" fill="#888">HD ›</text>
  <rect x="60" y="932" width="960" height="72" rx="12" fill="#111"/>
  <text x="120" y="978" font-family="sans-serif" font-size="22" fill="white">Cellular Streaming</text>
  <text x="880" y="978" font-family="sans-serif" font-size="22" fill="#888">On ›</text>
  <rect x="60" y="1016" width="960" height="72" rx="12" fill="#111"/>
  <text x="120" y="1062" font-family="sans-serif" font-size="22" fill="white">Language</text>
  <text x="880" y="1062" font-family="sans-serif" font-size="22" fill="#888">English ›</text>
  <!-- Sign out -->
  <rect x="60" y="1140" width="960" height="72" rx="12" fill="#2A0A0A"/>
  <text x="480" y="1186" font-family="sans-serif" font-size="22" fill="#E50914" text-anchor="middle">Sign Out</text>
  <!-- Bottom nav -->
  <rect y="1800" width="1080" height="120" fill="#0F0F0F"/>
  <line x1="0" y1="1800" x2="1080" y2="1800" stroke="#1A1A1A" stroke-width="1"/>
  <text x="108" y="1870" font-family="sans-serif" font-size="22" fill="#666">Home</text>
  <text x="324" y="1870" font-family="sans-serif" font-size="22" fill="#666">Discover</text>
  <text x="540" y="1870" font-family="sans-serif" font-size="22" fill="#666">Schedule</text>
  <text x="756" y="1870" font-family="sans-serif" font-size="22" fill="#666">Saved</text>
  <text x="972" y="1870" font-family="sans-serif" font-size="22" fill="#E50914">Profile</text>
</svg>
