<svg xmlns="http://www.w3.org/2000/svg" viewBox="0 0 800 700" fill="none">
  <defs>
    <linearGradient id="bgGrad" x1="0" y1="0" x2="1" y2="1">
      <stop offset="0%" stop-color="#0a0a0f"/>
      <stop offset="50%" stop-color="#0d0d1a"/>
      <stop offset="100%" stop-color="#080810"/>
    </linearGradient>
    <linearGradient id="accentGrad" x1="0" y1="0" x2="1" y2="1">
      <stop offset="0%" stop-color="#C89B3C"/>
      <stop offset="100%" stop-color="#00d4ff"/>
    </linearGradient>
    <linearGradient id="accentGrad2" x1="0" y1="0" x2="0" y2="1">
      <stop offset="0%" stop-color="#C89B3C" stop-opacity="0.4"/>
      <stop offset="100%" stop-color="#00d4ff" stop-opacity="0.1"/>
    </linearGradient>
    <linearGradient id="accentGrad3" x1="0" y1="0" x2="0" y2="1">
      <stop offset="0%" stop-color="#00d4ff" stop-opacity="0.3"/>
      <stop offset="100%" stop-color="#C89B3C" stop-opacity="0.05"/>
    </linearGradient>
    <linearGradient id="cardGrad" x1="0" y1="0" x2="0" y2="1">
      <stop offset="0%" stop-color="rgba(255,255,255,0.06)"/>
      <stop offset="100%" stop-color="rgba(255,255,255,0.02)"/>
    </linearGradient>
    <linearGradient id="greenGrad" x1="0" y1="0" x2="1" y2="1">
      <stop offset="0%" stop-color="#2ECC71"/>
      <stop offset="100%" stop-color="#27AE60"/>
    </linearGradient>
    <linearGradient id="purpleGrad" x1="0" y1="0" x2="1" y2="1">
      <stop offset="0%" stop-color="#8B5CF6"/>
      <stop offset="100%" stop-color="#A78BFA"/>
    </linearGradient>
    <filter id="glow1" x="-50%" y="-50%" width="200%" height="200%">
      <feGaussianBlur stdDeviation="6" result="blur"/>
      <feComposite in="SourceGraphic" in2="blur" operator="over"/>
    </filter>
    <filter id="glow2" x="-100%" y="-100%" width="300%" height="300%">
      <feGaussianBlur stdDeviation="16" result="blur"/>
      <feComposite in="SourceGraphic" in2="blur" operator="over"/>
    </filter>
    <filter id="glow3" x="-50%" y="-50%" width="200%" height="200%">
      <feGaussianBlur stdDeviation="2.5" result="blur"/>
      <feComposite in="SourceGraphic" in2="blur" operator="over"/>
    </filter>
    <filter id="softGlow" x="-20%" y="-20%" width="140%" height="140%">
      <feGaussianBlur stdDeviation="3" result="blur"/>
      <feComposite in="SourceGraphic" in2="blur" operator="over"/>
    </filter>
    <radialGradient id="pulseGrad" cx="0.5" cy="0.5" r="0.5">
      <stop offset="0%" stop-color="#00d4ff" stop-opacity="0.12"/>
      <stop offset="100%" stop-color="#00d4ff" stop-opacity="0"/>
    </radialGradient>
    <radialGradient id="goldPulse" cx="0.5" cy="0.5" r="0.5">
      <stop offset="0%" stop-color="#C89B3C" stop-opacity="0.1"/>
      <stop offset="100%" stop-color="#C89B3C" stop-opacity="0"/>
    </radialGradient>
    <pattern id="grid" width="40" height="40" patternUnits="userSpaceOnUse">
      <path d="M 40 0 L 0 0 0 40" fill="none" stroke="rgba(255,255,255,0.025)" stroke-width="0.5"/>
    </pattern>
    <clipPath id="editorClip"><rect x="60" y="80" width="440" height="310" rx="10"/></clipPath>
    <clipPath id="terminalClip"><rect x="60" y="410" width="440" height="180" rx="10"/></clipPath>
    <clipPath id="sidePanelClip"><rect x="530" y="80" width="240" height="510" rx="10"/></clipPath>
  </defs>

  <!-- Background -->
  <rect width="800" height="700" fill="url(#bgGrad)"/>
  <rect width="800" height="700" fill="url(#grid)"/>

  <!-- Ambient glow orbs -->
  <circle cx="200" cy="350" r="220" fill="url(#goldPulse)" opacity="0.5">
    <animate attributeName="r" values="220;260;220" dur="8s" repeatCount="indefinite"/>
  </circle>
  <circle cx="650" cy="300" r="180" fill="url(#pulseGrad)" opacity="0.4">
    <animate attributeName="r" values="180;220;180" dur="10s" repeatCount="indefinite"/>
  </circle>

  <!-- ============================================
       MAIN CODE EDITOR PANEL
       ============================================ -->
  <g clip-path="url(#editorClip)">
    <!-- Editor background -->
    <rect x="60" y="80" width="440" height="310" rx="10" fill="rgba(12,12,20,0.92)" stroke="rgba(255,255,255,0.06)" stroke-width="1"/>

    <!-- Editor title bar -->
    <rect x="60" y="80" width="440" height="32" fill="rgba(255,255,255,0.03)"/>
    <circle cx="80" cy="96" r="5" fill="#FF5F57"/>
    <circle cx="98" cy="96" r="5" fill="#FEBC2E"/>
    <circle cx="116" cy="96" r="5" fill="#28C840"/>
    <text x="160" y="100" font-family="monospace" font-size="11" fill="rgba(255,255,255,0.4)">appstore.js — LX Obsidian Labs</text>

    <!-- Line numbers -->
    <g font-family="monospace" font-size="10" fill="rgba(255,255,255,0.15)">
      <text x="72" y="132">1</text>
      <text x="72" y="148">2</text>
      <text x="72" y="164">3</text>
      <text x="72" y="180">4</text>
      <text x="72" y="196">5</text>
      <text x="72" y="212">6</text>
      <text x="72" y="228">7</text>
      <text x="72" y="244">8</text>
      <text x="72" y="260">9</text>
      <text x="72" y="276">10</text>
      <text x="66" y="292">11</text>
      <text x="66" y="308">12</text>
      <text x="66" y="324">13</text>
      <text x="66" y="340">14</text>
      <text x="66" y="356">15</text>
      <text x="66" y="372">16</text>
    </g>

    <!-- Code content — highlighted syntax -->
    <g font-family="monospace" font-size="10.5">
      <!-- Line 1: const APP_DATA = [ -->
      <text x="95" y="132" fill="#C586C0">const</text>
      <text x="133" y="132" fill="#9CDCFE"> APP_DATA</text>
      <text x="192" y="132" fill="#D4D4D4"> = [</text>

      <!-- Line 2: { -->
      <text x="95" y="148" fill="#D4D4D4">{</text>

      <!-- Line 3: id: 'synapse-ai' -->
      <text x="110" y="164" fill="#9CDCFE">id</text>
      <text x="122" y="164" fill="#D4D4D4">:</text>
      <text x="132" y="164" fill="#CE9178">'synapse-ai'</text>
      <text x="210" y="164" fill="#D4D4D4">,</text>

      <!-- Line 4: name: 'Synapse AI' -->
      <text x="110" y="180" fill="#9CDCFE">name</text>
      <text x="138" y="180" fill="#D4D4D4">:</text>
      <text x="148" y="180" fill="#CE9178">'Synapse AI'</text>
      <text x="222" y="180" fill="#D4D4D4">,</text>

      <!-- Line 5: desc: '...' -->
      <text x="110" y="196" fill="#9CDCFE">desc</text>
      <text x="136" y="196" fill="#D4D4D4">:</text>
      <text x="146" y="196" fill="#CE9178">'AI-powered browser'</text>

      <!-- Line 6: category: 'ai' -->
      <text x="110" y="212" fill="#9CDCFE">category</text>
      <text x="162" y="212" fill="#D4D4D4">:</text>
      <text x="172" y="212" fill="#CE9178">'ai'</text>
      <text x="196" y="212" fill="#D4D4D4">,</text>

      <!-- Line 7: price: 0 -->
      <text x="110" y="228" fill="#9CDCFE">price</text>
      <text x="143" y="228" fill="#D4D4D4">:</text>
      <text x="153" y="228" fill="#B5CEA8">0</text>
      <text x="159" y="228" fill="#D4D4D4">,</text>

      <!-- Line 8: rating: 5.0 -->
      <text x="110" y="244" fill="#9CDCFE">rating</text>
      <text x="148" y="244" fill="#D4D4D4">:</text>
      <text x="158" y="244" fill="#B5CEA8">5.0</text>
      <text x="175" y="244" fill="#D4D4D4">,</text>

      <!-- Line 9: features: [...] -->
      <text x="110" y="260" fill="#9CDCFE">features</text>
      <text x="165" y="260" fill="#D4D4D4">: [</text>
      <text x="182" y="260" fill="#CE9178">'AI automation'</text>
      <text x="272" y="260" fill="#D4D4D4">],</text>

      <!-- Line 10: isExtension: true -->
      <text x="110" y="276" fill="#9CDCFE">isExtension</text>
      <text x="182" y="276" fill="#D4D4D4">:</text>
      <text x="192" y="276" fill="#569CD6">true</text>
      <text x="217" y="276" fill="#D4D4D4">,</text>

      <!-- Line 11: downloads: 5400 -->
      <text x="110" y="292" fill="#9CDCFE">downloads</text>
      <text x="172" y="292" fill="#D4D4D4">:</text>
      <text x="182" y="292" fill="#B5CEA8">5400</text>
      <text x="213" y="292" fill="#D4D4D4">,</text>

      <!-- Line 12: } -->
      <text x="95" y="308" fill="#D4D4D4">}</text>

      <!-- Line 13: ]; -->
      <text x="95" y="324" fill="#D4D4D4">];</text>

      <!-- Line 14: blank -->
      <!-- Line 15: renderMarketplace() -->
      <text x="95" y="356" fill="#C586C0">function</text>
      <text x="152" y="356" fill="#DCDCAA"> renderMarketplace</text>
      <text x="275" y="356" fill="#D4D4D4">() {</text>

      <!-- Line 16: return <AppCard /> -->
      <text x="110" y="372" fill="#C586C0">return</text>
      <text x="152" y="372" fill="#808080">&lt;</text>
      <text x="160" y="372" fill="#4EC9B0">AppCard</text>
      <text x="208" y="372" fill="#9CDCFE">app</text>
      <text x="222" y="372" fill="#808080">={</text>
      <text x="230" y="372" fill="#9CDCFE">data</text>
      <text x="252" y="372" fill="#808080">}/&gt;</text>
    </g>

    <!-- Cursor blink -->
    <rect x="298" y="365" width="1.5" height="13" fill="#00d4ff" opacity="0.8">
      <animate attributeName="opacity" values="0.8;0;0.8" dur="1.2s" repeatCount="indefinite"/>
    </rect>

    <!-- Active line highlight -->
    <rect x="60" y="348" width="440" height="18" fill="rgba(0,212,255,0.03)"/>
  </g>

  <!-- Editor border glow -->
  <rect x="60" y="80" width="440" height="310" rx="10" fill="none" stroke="url(#accentGrad)" stroke-width="0.5" opacity="0.3"/>

  <!-- ============================================
       TERMINAL PANEL
       ============================================ -->
  <g clip-path="url(#terminalClip)">
    <rect x="60" y="410" width="440" height="180" rx="10" fill="rgba(8,8,16,0.95)" stroke="rgba(255,255,255,0.06)" stroke-width="1"/>

    <!-- Terminal title bar -->
    <rect x="60" y="410" width="440" height="28" fill="rgba(255,255,255,0.03)"/>
    <text x="80" y="428" font-family="monospace" font-size="10" fill="rgba(255,255,255,0.35)">⚡ Terminal</text>

    <!-- Terminal content -->
    <g font-family="monospace" font-size="10">
      <text x="75" y="456" fill="#C89B3C">$</text>
      <text x="88" y="456" fill="#D4D4D4">node scripts/build.js</text>

      <text x="75" y="474" fill="rgba(255,255,255,0.25)">⠋ Concatenating CSS files...</text>
      <text x="75" y="490" fill="#2ECC71">✓</text>
      <text x="88" y="490" fill="rgba(255,255,255,0.4)">style.css (175KB) — 9 files merged</text>

      <text x="75" y="506" fill="#2ECC71">✓</text>
      <text x="88" y="506" fill="rgba(255,255,255,0.4)">Copying assets → dist/</text>

      <text x="75" y="522" fill="#C89B3C">$</text>
      <text x="88" y="522" fill="#D4D4D4">wrangler pages deploy dist/</text>

      <text x="75" y="540" fill="#2ECC71">✓</text>
      <text x="88" y="540" fill="rgba(0,212,255,0.7)">https://lxobsidianportal.co.za published</text>

      <text x="75" y="558" fill="#C89B3C">$</text>
      <text x="88" y="558" fill="rgba(255,255,255,0.3)">_</text>
      <rect x="93" y="548" width="7" height="13" fill="#00d4ff" opacity="0.7">
        <animate attributeName="opacity" values="0.7;0;0.7" dur="1s" repeatCount="indefinite"/>
      </rect>
    </g>
  </g>

  <!-- Terminal border glow -->
  <rect x="60" y="410" width="440" height="180" rx="10" fill="none" stroke="#2ECC71" stroke-width="0.4" opacity="0.2"/>

  <!-- ============================================
       SIDE PANEL — Live Metrics Dashboard
       ============================================ -->
  <g clip-path="url(#sidePanelClip)">
    <rect x="530" y="80" width="240" height="510" rx="10" fill="rgba(10,10,18,0.92)" stroke="rgba(255,255,255,0.06)" stroke-width="1"/>

    <!-- Side panel title -->
    <rect x="530" y="80" width="240" height="30" fill="rgba(255,255,255,0.03)"/>
    <text x="548" y="99" font-family="monospace" font-size="10" fill="rgba(255,255,255,0.35)">📊 Live Dashboard</text>

    <!-- Metric Card 1 — Revenue -->
    <rect x="545" y="122" width="210" height="68" rx="8" fill="url(#cardGrad)" stroke="rgba(200,155,60,0.15)" stroke-width="0.5"/>
    <text x="560" y="142" font-family="sans-serif" font-size="9" fill="rgba(255,255,255,0.4)" letter-spacing="0.06em">PARTNER PAYOUTS</text>
    <text x="560" y="164" font-family="sans-serif" font-size="22" font-weight="700" fill="url(#accentGrad)">R2.4M+</text>
    <text x="560" y="180" font-family="sans-serif" font-size="9" fill="#2ECC71">↑ 23% this month</text>

    <!-- Mini sparkline for revenue -->
    <polyline points="660,165 670,158 680,162 690,150 700,155 710,142 720,148 730,140 740,145"
      fill="none" stroke="#2ECC71" stroke-width="1.2" opacity="0.6">
      <animate attributeName="stroke-dashoffset" from="100" to="0" dur="3s" fill="freeze"/>
    </polyline>

    <!-- Metric Card 2 — Downloads -->
    <rect x="545" y="200" width="100" height="68" rx="8" fill="url(#cardGrad)" stroke="rgba(0,212,255,0.15)" stroke-width="0.5"/>
    <text x="558" y="220" font-family="sans-serif" font-size="9" fill="rgba(255,255,255,0.4)" letter-spacing="0.06em">DOWNLOADS</text>
    <text x="558" y="244" font-family="sans-serif" font-size="20" font-weight="700" fill="#00d4ff">5.4K</text>
    <text x="558" y="258" font-family="sans-serif" font-size="8" fill="#2ECC71">Synapse AI</text>

    <!-- Metric Card 3 — Rating -->
    <rect x="655" y="200" width="100" height="68" rx="8" fill="url(#cardGrad)" stroke="rgba(139,92,246,0.15)" stroke-width="0.5"/>
    <text x="668" y="220" font-family="sans-serif" font-size="9" fill="rgba(255,255,255,0.4)" letter-spacing="0.06em">RATING</text>
    <text x="668" y="244" font-family="sans-serif" font-size="20" font-weight="700" fill="#A78BFA">5.0 ★</text>
    <text x="668" y="258" font-family="sans-serif" font-size="8" fill="rgba(255,255,255,0.3)">128 reviews</text>

    <!-- Metric Card 4 — Apps -->
    <rect x="545" y="280" width="210" height="56" rx="8" fill="url(#cardGrad)" stroke="rgba(255,255,255,0.06)" stroke-width="0.5"/>
    <text x="560" y="300" font-family="sans-serif" font-size="9" fill="rgba(255,255,255,0.4)" letter-spacing="0.06em">MARKETPLACE APPS</text>
    <text x="560" y="322" font-family="sans-serif" font-size="18" font-weight="700" fill="#D4D4D4">13</text>
    <text x="580" y="322" font-family="sans-serif" font-size="10" fill="rgba(255,255,255,0.3)"> products live</text>

    <!-- Progress bars for categories -->
    <rect x="560" y="340" width="190" height="4" rx="2" fill="rgba(255,255,255,0.06)"/>
    <rect x="560" y="340" width="130" height="4" rx="2" fill="url(#accentGrad)" opacity="0.7"/>
    <text x="560" y="358" font-family="sans-serif" font-size="8" fill="rgba(255,255,255,0.3)">Business</text>
    <text x="735" y="358" font-family="sans-serif" font-size="8" fill="rgba(255,255,255,0.25)" text-anchor="end">69%</text>

    <rect x="560" y="368" width="190" height="4" rx="2" fill="rgba(255,255,255,0.06)"/>
    <rect x="560" y="368" width="50" height="4" rx="2" fill="#00d4ff" opacity="0.7"/>
    <text x="560" y="386" font-family="sans-serif" font-size="8" fill="rgba(255,255,255,0.3)">Dev Tools</text>
    <text x="735" y="386" font-family="sans-serif" font-size="8" fill="rgba(255,255,255,0.25)" text-anchor="end">23%</text>

    <!-- Affiliate earnings card -->
    <rect x="545" y="400" width="210" height="64" rx="8" fill="url(#cardGrad)" stroke="rgba(200,155,60,0.12)" stroke-width="0.5"/>
    <text x="560" y="420" font-family="sans-serif" font-size="9" fill="rgba(255,255,255,0.4)" letter-spacing="0.06em">AFFILIATE COMMISSION</text>
    <text x="560" y="442" font-family="sans-serif" font-size="18" font-weight="700" fill="#C89B3C">20%</text>
    <text x="595" y="442" font-family="sans-serif" font-size="10" fill="rgba(255,255,255,0.35)">recurring / referral</text>
    <text x="560" y="456" font-family="sans-serif" font-size="8" fill="rgba(255,255,255,0.25)">30-day cookie · Monthly payouts</text>

    <!-- Deploy status -->
    <rect x="545" y="476" width="210" height="50" rx="8" fill="url(#cardGrad)" stroke="rgba(46,204,113,0.15)" stroke-width="0.5"/>
    <circle cx="563" cy="500" r="4" fill="#2ECC71" filter="url(#softGlow)">
      <animate attributeName="opacity" values="1;0.4;1" dur="2s" repeatCount="indefinite"/>
    </circle>
    <text x="574" y="504" font-family="sans-serif" font-size="10" fill="#2ECC71">Deployed &amp; Live</text>
    <text x="560" y="518" font-family="sans-serif" font-size="8" fill="rgba(255,255,255,0.25)">Cloudflare Pages · Auto-build on push</text>
  </g>

  <!-- Side panel border glow -->
  <rect x="530" y="80" width="240" height="510" rx="10" fill="none" stroke="rgba(255,255,255,0.08)" stroke-width="0.5"/>

  <!-- ============================================
       FLOATING ELEMENTS
       ============================================ -->

  <!-- Floating notification toast -->
  <g filter="url(#glow1)" opacity="0.85">
    <rect x="180" y="30" width="260" height="36" rx="8" fill="rgba(10,10,18,0.92)" stroke="rgba(46,204,113,0.3)" stroke-width="0.8"/>
    <circle cx="198" cy="48" r="6" fill="#2ECC71" opacity="0.8"/>
    <text x="212" y="52" font-family="sans-serif" font-size="10" fill="#2ECC71">✓ Synapse AI v1.1.1 published</text>
    <animate attributeName="opacity" values="0.85;0.95;0.85" dur="4s" repeatCount="indefinite"/>
  </g>

  <!-- Floating badge — Free -->
  <g transform="translate(520,50)" filter="url(#glow3)">
    <rect width="64" height="22" rx="11" fill="rgba(46,204,113,0.15)" stroke="#2ECC71" stroke-width="0.6"/>
    <text x="32" y="15" font-family="sans-serif" font-size="9" font-weight="600" fill="#2ECC71" text-anchor="middle">FREE</text>
  </g>

  <!-- Floating code snippet — terminal style -->
  <g opacity="0.12" font-family="monospace" fill="url(#accentGrad)">
    <text x="50" y="620" font-size="10">&lt;script src="synapse.ai"&gt;&lt;/script&gt;</text>
    <text x="530" y="610" font-size="9">{ deploy: 'cloudflare' }</text>
  </g>

  <!-- Data flow lines connecting editor to side panel -->
  <g opacity="0.15">
    <path d="M500 200 C515 200, 520 160, 530 160" stroke="#00d4ff" stroke-width="0.8" fill="none" stroke-dasharray="3 4">
      <animate attributeName="stroke-dashoffset" from="0" to="-20" dur="2s" repeatCount="indefinite"/>
    </path>
    <path d="M500 350 C515 350, 520 310, 530 310" stroke="#C89B3C" stroke-width="0.8" fill="none" stroke-dasharray="3 4">
      <animate attributeName="stroke-dashoffset" from="0" to="-20" dur="2.5s" repeatCount="indefinite"/>
    </path>
    <path d="M500 480 C515 480, 520 500, 530 500" stroke="#2ECC71" stroke-width="0.8" fill="none" stroke-dasharray="3 4">
      <animate attributeName="stroke-dashoffset" from="0" to="-20" dur="3s" repeatCount="indefinite"/>
    </path>
  </g>

  <!-- Small floating particles -->
  <g fill="#00d4ff" opacity="0.25">
    <circle cx="30" cy="200" r="1.5">
      <animate attributeName="cy" values="200;180;200" dur="5s" repeatCount="indefinite"/>
      <animate attributeName="opacity" values="0.25;0.5;0.25" dur="5s" repeatCount="indefinite"/>
    </circle>
    <circle cx="510" cy="300" r="1.2">
      <animate attributeName="cy" values="300;280;300" dur="6s" repeatCount="indefinite"/>
    </circle>
    <circle cx="780" cy="450" r="1">
      <animate attributeName="cy" values="450;430;450" dur="4s" repeatCount="indefinite"/>
    </circle>
    <circle cx="400" cy="620" r="1.3">
      <animate attributeName="cy" values="620;600;620" dur="7s" repeatCount="indefinite"/>
    </circle>
    <circle cx="250" cy="650" r="1">
      <animate attributeName="cy" values="650;635;650" dur="5.5s" repeatCount="indefinite"/>
    </circle>
  </g>

  <!-- Hex decoration (top-right) -->
  <g filter="url(#glow2)" opacity="0.06">
    <polygon points="760,30 790,50 790,90 760,110 730,90 730,50" fill="none" stroke="#00d4ff" stroke-width="0.8">
      <animateTransform attributeName="transform" type="rotate" from="0 760 70" to="360 760 70" dur="60s" repeatCount="indefinite"/>
    </polygon>
  </g>

  <!-- Hex decoration (bottom-left) -->
  <g filter="url(#glow2)" opacity="0.05">
    <polygon points="30,620 60,640 60,680 30,700 0,680 0,640" fill="none" stroke="#C89B3C" stroke-width="0.6">
      <animateTransform attributeName="transform" type="rotate" from="0 30 660" to="-360 30 660" dur="50s" repeatCount="indefinite"/>
    </polygon>
  </g>

  <!-- Floating brackets -->
  <g font-family="monospace" font-size="18" font-weight="700" opacity="0.06" fill="url(#accentGrad)">
    <text x="20" y="100">&lt;/&gt;</text>
    <text x="760" y="650">{ }</text>
    <text x="500" y="660">( )</text>
  </g>
</svg>